<svg xmlns="http://www.w3.org/2000/svg" xmlns:xlink="http://www.w3.org/1999/xlink" width="19" height="20" version="1.1" viewBox="0 0 19 20"><title>business summary icon</title><g id="Symbols" fill="none" fill-rule="evenodd" stroke="none" stroke-width="1"><g id="3-non-staff-buttons" fill="#1669BB" transform="translate(-488.000000, -2.000000)"><g id="business-summary-icon" transform="translate(488.000000, 2.000000)"><path id="Shape" fill-rule="nonzero" d="M5.66459627,16.9937888 L1.88819876,16.9937888 L1.88819876,1.88819876 L8.49689441,1.88819876 L8.49689441,6.60869565 L13.2173913,6.60869565 L13.2173913,8.25 L15.2,8.75 L15,5.66459627 L9.44099379,0 L1.88819876,0 C0.845375379,0 0,0.845375379 0,1.88819876 L0,16.9937888 C0,18.0366122 0.845375379,18.8819876 1.88819876,18.8819876 L11.6821289,18.8819876 L9.9909668,16.9937888 L5.66459627,16.9937888 Z M6.98268955,6.01407126 C8.25433208,5.97773862 7.41868127,8.84801748 7.41868127,8.84801748 C7.77292455,10.2014085 9.25347978,11.1733067 9.25347978,11.1733067 C9.64878426,11.0547153 11.3735504,10.6968594 11.5251465,11.5065918 C11.5477164,11.6271461 10.7040832,12.3129298 10.4733699,12.3995334 C9.70604509,12.6875665 8.75390593,12.1633712 8.75390593,12.1633712 C6.98268955,12.2905355 5.65654805,12.7628599 5.65654805,12.7628599 C4.63015086,14.6794068 3.43117361,15.5150576 2.94068292,14.7066563 C2.33211113,13.6984254 4.8753962,12.3995334 4.8753962,12.3995334 C6.19245454,10.2649906 6.39228408,9.02059754 6.4104504,8.98426489 C6.19245454,8.2848615 5.71104701,6.0504039 6.98268955,6.01407126 Z"/><polygon id="Rectangle" points="13.07 10.2 15.733 10.2 15.733 14.257 18.089 14.279 14.328 19.793 10.473 14.279 13.07 14.279"/></g></g></g></svg>