<svg xmlns="http://www.w3.org/2000/svg" width="280" height="187"><defs><radialGradient id="SVGID_1_" cx="137.378" cy="130.264" r="134.447" gradientUnits="userSpaceOnUse"><stop offset="0" stop-color="#FFF"/><stop offset=".126" stop-color="#FFFEFC"/><stop offset=".237" stop-color="#FFFAF1"/><stop offset=".342" stop-color="#FFF4DF"/><stop offset=".443" stop-color="#FFEBC6"/><stop offset=".541" stop-color="#FFE0A5"/><stop offset=".6" stop-color="#FFD88E"/><stop offset=".616" stop-color="#FFD581"/><stop offset=".663" stop-color="#FECC5F"/><stop offset=".713" stop-color="#FDC543"/><stop offset=".767" stop-color="#FDBF2E"/><stop offset=".827" stop-color="#FCBB1F"/><stop offset=".897" stop-color="#FCB916"/><stop offset="1" stop-color="#FCB813"/></radialGradient><radialGradient id="SVGID_2_" cx="73.233" cy="137.686" r="137.768" gradientTransform="matrix(0.9145 0 0 1 70.8027 0)" gradientUnits="userSpaceOnUse"><stop offset=".53" stop-color="#FFF"/><stop offset=".598" stop-color="#FFF7E9"/><stop offset=".74" stop-color="#FFE3B0"/><stop offset=".77" stop-color="#FFDFA3"/><stop offset=".804" stop-color="#FFD991"/><stop offset=".871" stop-color="#FFC961"/><stop offset=".88" stop-color="#FFC75A"/><stop offset=".91" stop-color="#FEC34A"/><stop offset=".966" stop-color="#FDBE32"/><stop offset="1" stop-color="#FDBC29"/></radialGradient><radialGradient id="SVGID_3_" cx="55.936" cy="-197.177" r="137.957" gradientTransform="matrix(0.8479 -0.3426 0.3746 0.9272 164.2077 339.6694)" gradientUnits="userSpaceOnUse"><stop offset=".53" stop-color="#FFF"/><stop offset=".598" stop-color="#FFF7E9"/><stop offset=".74" stop-color="#FFE3B0"/><stop offset=".77" stop-color="#FFDFA3"/><stop offset=".804" stop-color="#FFD991"/><stop offset=".871" stop-color="#FFC961"/><stop offset=".88" stop-color="#FFC75A"/><stop offset=".91" stop-color="#FEC34A"/><stop offset=".966" stop-color="#FDBE32"/><stop offset="1" stop-color="#FDBC29"/></radialGradient><radialGradient id="SVGID_4_" cx="172.672" cy="-504.873" r="137.985" gradientTransform="matrix(0.6578 -0.6352 0.6947 0.7193 374.9227 610.5229)" gradientUnits="userSpaceOnUse"><stop offset=".53" stop-color="#FFF"/><stop offset=".598" stop-color="#FFF7E9"/><stop offset=".74" stop-color="#FFE3B0"/><stop offset=".77" stop-color="#FFDFA3"/><stop offset=".804" stop-color="#FFD991"/><stop offset=".871" stop-color="#FFC961"/><stop offset=".88" stop-color="#FFC75A"/><stop offset=".91" stop-color="#FEC34A"/><stop offset=".966" stop-color="#FDBE32"/><stop offset="1" stop-color="#FDBC29"/></radialGradient><radialGradient id="SVGID_5_" cx="137.773" cy="137.69" r="137.876" gradientUnits="userSpaceOnUse"><stop offset=".53" stop-color="#FFF"/><stop offset=".598" stop-color="#FFF7E9"/><stop offset=".74" stop-color="#FFE3B0"/><stop offset=".77" stop-color="#FFDFA3"/><stop offset=".804" stop-color="#FFD991"/><stop offset=".871" stop-color="#FFC961"/><stop offset=".88" stop-color="#FFC75A"/><stop offset=".91" stop-color="#FEC34A"/><stop offset=".966" stop-color="#FDBE32"/><stop offset="1" stop-color="#FDBC29"/></radialGradient><radialGradient id="SVGID_6_" cx="227.458" cy="445.356" r="137.845" gradientTransform="matrix(0.8479 0.3426 -0.3746 0.9272 111.7459 -353.1749)" gradientUnits="userSpaceOnUse"><stop offset=".53" stop-color="#FFF"/><stop offset=".598" stop-color="#FFF7E9"/><stop offset=".74" stop-color="#FFE3B0"/><stop offset=".77" stop-color="#FFDFA3"/><stop offset=".804" stop-color="#FFD991"/><stop offset=".871" stop-color="#FFC961"/><stop offset=".88" stop-color="#FFC75A"/><stop offset=".91" stop-color="#FEC34A"/><stop offset=".966" stop-color="#FDBE32"/><stop offset="1" stop-color="#FDBC29"/></radialGradient><radialGradient id="SVGID_7_" cx="500.451" cy="685.441" r="137.538" gradientTransform="matrix(0.6578 0.6352 -0.6947 0.7193 284.753 -673.2359)" gradientUnits="userSpaceOnUse"><stop offset=".53" stop-color="#FFF"/><stop offset=".598" stop-color="#FFF7E9"/><stop offset=".74" stop-color="#FFE3B0"/><stop offset=".77" stop-color="#FFDFA3"/><stop offset=".804" stop-color="#FFD991"/><stop offset=".871" stop-color="#FFC961"/><stop offset=".88" stop-color="#FFC75A"/><stop offset=".91" stop-color="#FEC34A"/><stop offset=".966" stop-color="#FDBE32"/><stop offset="1" stop-color="#FDBC29"/></radialGradient><radialGradient id="SVGID_8_" cx="850.423" cy="817.296" r="137.358" gradientTransform="matrix(0.3719 0.8354 -0.9135 0.4067 568.1044 -905.1508)" gradientUnits="userSpaceOnUse"><stop offset=".53" stop-color="#FFF"/><stop offset=".598" stop-color="#FFF7E9"/><stop offset=".74" stop-color="#FFE3B0"/><stop offset=".77" stop-color="#FFDFA3"/><stop offset=".804" stop-color="#FFD991"/><stop offset=".871" stop-color="#FFC961"/><stop offset=".88" stop-color="#FFC75A"/><stop offset=".91" stop-color="#FEC34A"/><stop offset=".966" stop-color="#FDBE32"/><stop offset="1" stop-color="#FDBC29"/></radialGradient><radialGradient id="SVGID_9_" cx="137.499" cy="137.734" r="137.794" gradientUnits="userSpaceOnUse"><stop offset=".72" stop-color="#FFF"/><stop offset=".809" stop-color="#FFF8ED"/><stop offset=".986" stop-color="#FFE6BD"/><stop offset="1" stop-color="#FFE5B9"/></radialGradient></defs><g><title>background</title><rect id="canvas_background" width="282" height="189" x="-1" y="-1" fill="none"/></g><g><title>Layer 1</title><g id="svg_3"><circle id="svg_4" cx="140.854" cy="139.644" r=".418" fill="none"/><path id="svg_5" fill="url(#SVGID_1_)" d="m273.827,108.235c-14.242,-60.888 -68.877,-106.235 -134.107,-106.235c-66.328,0 -121.703,46.888 -134.79,109.324l29.087,-16.572l16.036,11.226c0,0 9.382,-4.246 11.356,-5.493l11.595,12.22c0,0 25.174,19.95 25.911,19.95c0.743,0 22.215,-12.464 22.215,-12.464l19.252,-13.224l16.777,12.222l12.586,2.496l12.832,8.727c0,0 31.097,-20.702 36.034,-23.191c0,0 13.571,4.984 14.803,4.741c1.233,-0.255 22.457,-16.712 22.457,-16.712l17.956,12.985z"/><path id="svg_6" fill="url(#SVGID_2_)" d="m141.052,69.228c1.321,0 2.717,0.033 4.02,0.104l4.9,-66.953c-3.384,-0.25 -6.802,-0.379 -10.252,-0.379c-2.23,0 -4.448,0.058 -6.653,0.162l3.268,67.229c1.559,-0.103 3.13,-0.163 4.717,-0.163z"/><path id="svg_7" fill="url(#SVGID_3_)" d="m118.206,73.055l-20.683,-64.462c-5.388,1.734 -10.629,3.788 -15.703,6.142l28.442,61.586c2.557,-1.243 5.226,-2.334 7.944,-3.266z"/><path id="svg_8" fill="url(#SVGID_4_)" d="m95.373,86.155l-43.643,-52.38c-4.347,3.616 -8.465,7.492 -12.338,11.608l49.772,46.802c1.919,-2.108 4.051,-4.171 6.209,-6.03z"/><path id="svg_9" fill="url(#SVGID_5_)" d="m79.174,106.239l-60.431,-32.383c-2.296,4.113 -5.613,11.152 -7.164,15.301l64.11,24.863c1.012,-2.651 2.171,-5.291 3.485,-7.781z"/><path id="svg_10" fill="url(#SVGID_6_)" d="m171.293,76.083l29.422,-59.864c-5.041,-2.493 -10.253,-4.688 -15.62,-6.559l-21.998,63.108c2.781,0.923 5.582,2.071 8.196,3.315z"/><path id="svg_11" fill="url(#SVGID_7_)" d="m192.456,91.712l49.512,-44.25c-3.75,-4.152 -7.745,-8.076 -11.969,-11.746l-43.795,49.959c2.207,1.877 4.293,3.905 6.252,6.037z"/><path id="svg_12" fill="url(#SVGID_8_)" d="m206.582,114.424l62.364,-22.415c-1.942,-5.263 -4.197,-10.372 -6.742,-15.308l-59.154,29.851c1.329,2.559 2.519,5.139 3.532,7.872z"/><path id="svg_13" fill="url(#SVGID_9_)" d="m121.13,120.191l19.252,-13.224l16.777,12.222l12.586,2.496l12.832,8.727c0,0 13.996,-9.315 24.697,-16.2c-1.848,-4.867 -4.212,-9.479 -7.036,-13.766l46.458,-35.964l-49.388,31.839c-4.438,-5.79 -9.748,-10.88 -15.736,-15.065l29.12,-49.927l-33.298,47.22c-6.206,-3.72 -13.03,-6.517 -20.283,-8.2l8.337,-57.479l-13.248,56.526c-3.631,-0.572 -7.354,-0.875 -11.148,-0.875c-4.041,0 -8.001,0.342 -11.854,0.992l-13.277,-56.642l8.362,57.65c-7.187,1.748 -13.947,4.584 -20.09,8.336l-33.517,-47.527l29.333,50.29c-5.885,4.189 -11.099,9.263 -15.455,15.016l-49.878,-32.154l46.938,36.34c-2.703,4.165 -4.981,8.627 -6.774,13.333c5.8,4.585 23.461,18.5 24.075,18.5c0.743,0 22.215,-12.464 22.215,-12.464z"/><path id="svg_14" fill="#004B8D" d="m273.592,107.311l-17.721,-12.825c0,0 -21.224,16.46 -22.457,16.709c-1.232,0.25 -14.803,-4.739 -14.803,-4.739c-4.938,2.495 -36.034,23.195 -36.034,23.195l-12.832,-8.732l-12.586,-2.49l-16.777,-12.22l-19.252,13.216c0,0 -21.472,12.47 -22.215,12.47c-0.737,0 -25.911,-19.953 -25.911,-19.953l-11.595,-12.22c-1.975,1.248 -11.356,5.491 -11.356,5.491l-16.036,-11.225l-28.889,16.46c-2.042,9.436 -3.128,19.223 -3.128,29.273c0,8.801 0.836,17.411 2.414,25.754c12.102,-2.205 34.172,-5.338 52.428,-3.034c26.652,3.37 43.309,7.857 71.443,14.217c28.131,6.358 48.865,12.347 79.216,8.977c28.413,-3.147 49.043,-8.927 67.955,-22.542c1.299,-7.601 1.982,-15.406 1.982,-23.371c0,-11.167 -1.335,-22.021 -3.846,-32.411z"/></g></g></svg>